<?xml version="1.0" standalone="no"?><!-- Generator: Gravit.io --><svg xmlns="http://www.w3.org/2000/svg" xmlns:xlink="http://www.w3.org/1999/xlink" style="isolation:isolate" viewBox="0 0 500 500" width="500" height="500"><defs><clipPath id="_clipPath_NgECpYrqYNgbO7Ju6aONDIvmvmp68lLL"><rect width="500" height="500"/></clipPath></defs><g clip-path="url(#_clipPath_NgECpYrqYNgbO7Ju6aONDIvmvmp68lLL)"><rect width="500" height="500" style="fill:rgb(149,232,252)"/><g id="fire"><path d=" M 80.826 244.718 C 80.826 244.718 97.784 269.632 133.328 290.721 C 133.328 290.721 107.586 73.161 275.313 35.377 C 232.341 193.092 329.975 237.57 365.564 154.246 C 424.999 233.599 379.872 302.83 379.872 302.83 C 404.243 306.341 424.714 279.716 424.714 279.716 C 424.897 282.996 424.999 286.298 424.999 289.624 C 425 386.273 346.65 464.623 250 464.623 C 153.35 464.623 75 386.273 75 289.623 C 75 274.098 77.032 259.049 80.826 244.718 Z " fill="rgb(255,101,54)"/><path d=" M 424.715 279.716 C 424.715 279.716 404.244 306.341 379.873 302.83 C 379.873 302.83 425 233.599 365.565 154.246 C 329.976 237.57 232.341 193.092 275.314 35.377 C 266.331 37.401 257.907 39.943 250 42.937 L 250 464.623 C 346.65 464.623 425 386.273 425 289.623 C 425 286.297 424.898 282.996 424.715 279.716 Z " fill="rgb(255,66,29)"/><path d=" M 173.252 387.875 C 173.252 430.262 207.614 464.623 250 464.623 C 292.386 464.623 326.748 430.262 326.748 387.875 C 326.748 365.188 316.905 344.801 301.255 330.75 C 271.581 371.063 229.296 309.912 262.25 265.255 C 262.25 265.255 173.252 276.408 173.252 387.875 Z " fill="rgb(251,191,0)"/><path d=" M 326.748 387.875 C 326.748 365.188 316.905 344.801 301.255 330.75 C 271.581 371.063 229.296 309.912 262.25 265.255 C 262.25 265.255 257.415 265.863 250 268.203 L 250 464.623 C 292.386 464.623 326.748 430.262 326.748 387.875 Z " fill="rgb(255,169,0)"/></g></g></svg>